<svg width="95" height="129" viewBox="0 0 95 129" fill="none" xmlns="http://www.w3.org/2000/svg">
<g filter="url(#filter0_d_86_681)">
<path d="M49.9704 116.274C31.958 116.274 9.44238 73.8645 9.44238 56.008C9.44238 38.1514 27.4548 10.2505 49.9704 10.2505C72.486 10.2505 88.2469 38.1514 88.2469 54.8919C88.2469 71.6325 67.9829 116.274 49.9704 116.274Z" fill="#F28300"/>
<path d="M36.4608 22.527C36.4608 22.527 21.8257 41.4996 18.4483 44.8477C15.071 48.1958 8.3163 64.9364 8.3163 64.9364C8.3163 64.9364 6.06476 39.2676 10.5679 33.6874C15.071 28.1072 30.8319 8.01858 38.7123 4.67048C46.5928 1.32237 66.8568 0.206316 73.6115 4.67045C80.3661 9.13459 85.995 21.411 87.1208 25.8751C88.2466 30.3393 87.1208 63.8203 87.1208 63.8203L76.9888 30.3393V47.0798L69.1083 25.8751L51.0959 20.2949L42.0897 33.6874L44.3412 21.411L33.0834 40.3836L36.4608 22.527Z" fill="black" stroke="black" stroke-width="1.54795"/>
<ellipse cx="31.9575" cy="54.8919" rx="5.62889" ry="5.58018" fill="#444444"/>
<ellipse cx="65.7314" cy="54.8919" rx="5.62889" ry="5.58018" fill="#444444"/>
<path d="M30.832 90.6051C30.832 90.6051 49.9703 95.0692 61.228 95.0692C72.4858 95.0692 64.6054 91.7211 64.6054 91.7211" stroke="black" stroke-width="1.54795" stroke-linecap="round"/>
</g>
<defs>
<filter id="filter0_d_86_681" x="0.787712" y="0.952148" width="93.7991" height="127.705" filterUnits="userSpaceOnUse" color-interpolation-filters="sRGB">
<feFlood flood-opacity="0" result="BackgroundImageFix"/>
<feColorMatrix in="SourceAlpha" type="matrix" values="0 0 0 0 0 0 0 0 0 0 0 0 0 0 0 0 0 0 127 0" result="hardAlpha"/>
<feOffset dy="6.19178"/>
<feGaussianBlur stdDeviation="3.09589"/>
<feColorMatrix type="matrix" values="0 0 0 0 0 0 0 0 0 0 0 0 0 0 0 0 0 0 1 0"/>
<feBlend mode="normal" in2="BackgroundImageFix" result="effect1_dropShadow_86_681"/>
<feBlend mode="normal" in="SourceGraphic" in2="effect1_dropShadow_86_681" result="shape"/>
</filter>
</defs>
</svg>
